<mxfile modified="2023-08-05T07:39:32.739Z" host="app.diagrams.net" agent="5.0 (Macintosh; Intel Mac OS X 10_15_7) AppleWebKit/537.36 (KHTML, like Gecko) Chrome/114.0.0.0 Safari/537.36" etag="rXHvsjtbEpYR-wt-ax_f" version="20.6.2" type="github">
  <diagram id="f106602c-feb2-e66a-4537-3a34d633f6aa" name="Page-1">
    <mxGraphModel dx="1299" dy="920" grid="1" gridSize="10" guides="1" tooltips="1" connect="1" arrows="1" fold="1" page="1" pageScale="1" pageWidth="1169" pageHeight="827" background="none" math="0" shadow="0">
      <root>
        <mxCell id="0" />
        <mxCell id="1" parent="0" />
        <mxCell id="14" value="&lt;b&gt;电子白板服务&lt;/b&gt;" style="fillColor=#F6F6F6;strokeColor=none;shadow=0;gradientColor=none;fontSize=14;align=left;spacing=10;fontColor=#717171;9E9E9E;verticalAlign=top;spacingTop=-4;fontStyle=0;spacingLeft=40;html=1;" parent="1" vertex="1">
          <mxGeometry x="420" y="99" width="400" height="331" as="geometry" />
        </mxCell>
        <mxCell id="15" value="" style="shape=mxgraph.gcp2.google_cloud_platform;fillColor=#F6F6F6;strokeColor=none;shadow=0;gradientColor=none;" parent="14" vertex="1">
          <mxGeometry width="23" height="20" relative="1" as="geometry">
            <mxPoint x="20" y="10" as="offset" />
          </mxGeometry>
        </mxCell>
        <mxCell id="997" value="支持多人互动" style="rounded=1;absoluteArcSize=1;arcSize=2;html=1;strokeColor=none;gradientColor=none;shadow=0;dashed=0;fontSize=12;fontColor=#9E9E9E;align=left;verticalAlign=top;spacing=10;spacingTop=-4;fillColor=#F1F8E9;" parent="1" vertex="1">
          <mxGeometry x="310" y="140" width="90" height="230" as="geometry" />
        </mxCell>
        <mxCell id="818" value="电子白板" style="fillColor=#4DA1F5;strokeColor=none;shadow=1;gradientColor=none;fontSize=14;align=left;spacingLeft=50;fontColor=#ffffff;html=1;" parent="1" vertex="1">
          <mxGeometry x="260" y="40" width="650" height="40" as="geometry" />
        </mxCell>
        <mxCell id="985" value="终端" style="strokeColor=#dddddd;fillColor=#ffffff;shadow=1;strokeWidth=1;rounded=1;absoluteArcSize=1;arcSize=2;labelPosition=center;verticalLabelPosition=bottom;align=center;verticalAlign=top;spacingLeft=0;fontColor=#999999;fontSize=12;whiteSpace=wrap;spacingBottom=2;html=1;" parent="1" vertex="1">
          <mxGeometry x="320" y="240" width="70" height="70" as="geometry" />
        </mxCell>
        <mxCell id="986" value="" style="dashed=0;connectable=0;html=1;fillColor=#757575;strokeColor=none;shape=mxgraph.gcp2.mobile_devices;part=1;" parent="985" vertex="1">
          <mxGeometry x="0.5" width="50" height="36.5" relative="1" as="geometry">
            <mxPoint x="-25" y="16.75" as="offset" />
          </mxGeometry>
        </mxCell>
        <mxCell id="991" value="" style="strokeColor=#dddddd;fillColor=#ffffff;shadow=1;strokeWidth=1;rounded=1;absoluteArcSize=1;arcSize=2;fontSize=11;fontColor=#9E9E9E;align=center;html=1;" parent="1" vertex="1">
          <mxGeometry x="630" y="140" width="210" height="70" as="geometry" />
        </mxCell>
        <mxCell id="992" value="&lt;font color=&quot;#000000&quot;&gt;白板工具&lt;/font&gt;&lt;br&gt;完备的白板工具，&lt;font style=&quot;font-size: 11px&quot;&gt;支持涂鸦、&lt;br&gt;文本、基础图形、橡皮擦、&lt;br&gt;激光笔等工具&lt;/font&gt;" style="dashed=0;connectable=0;html=1;fillColor=#5184F3;strokeColor=none;shape=mxgraph.gcp2.hexIcon;prIcon=app_engine;part=1;labelPosition=right;verticalLabelPosition=middle;align=left;verticalAlign=top;spacingLeft=5;fontColor=#999999;fontSize=12;spacingTop=-8;" parent="991" vertex="1">
          <mxGeometry width="44" height="39" relative="1" as="geometry">
            <mxPoint x="5" y="7" as="offset" />
          </mxGeometry>
        </mxCell>
        <mxCell id="993" value="" style="strokeColor=#dddddd;fillColor=#ffffff;shadow=1;strokeWidth=1;rounded=1;absoluteArcSize=1;arcSize=2;fontSize=11;fontColor=#9E9E9E;align=center;html=1;" parent="1" vertex="1">
          <mxGeometry x="630" y="240" width="210" height="70" as="geometry" />
        </mxCell>
        <mxCell id="994" value="&lt;font color=&quot;#000000&quot;&gt;录制回放&lt;/font&gt;&lt;font style=&quot;font-size: 11px&quot;&gt;&lt;br&gt;支持保存导出&lt;/font&gt;" style="dashed=0;connectable=0;html=1;fillColor=#5184F3;strokeColor=none;shape=mxgraph.gcp2.hexIcon;prIcon=compute_engine;part=1;labelPosition=right;verticalLabelPosition=middle;align=left;verticalAlign=top;spacingLeft=5;fontColor=#999999;fontSize=12;spacingTop=-8;" parent="993" vertex="1">
          <mxGeometry width="44" height="39" relative="1" as="geometry">
            <mxPoint x="5" y="7" as="offset" />
          </mxGeometry>
        </mxCell>
        <mxCell id="995" value="" style="strokeColor=#dddddd;fillColor=#ffffff;shadow=1;strokeWidth=1;rounded=1;absoluteArcSize=1;arcSize=2;fontSize=11;fontColor=#9E9E9E;align=center;html=1;" parent="1" vertex="1">
          <mxGeometry x="630" y="340" width="170" height="70" as="geometry" />
        </mxCell>
        <mxCell id="996" value="&lt;font color=&quot;#000000&quot;&gt;API&lt;/font&gt;&lt;br&gt;Contrainer Engine&lt;hr&gt;&lt;font style=&quot;font-size: 11px&quot;&gt;Kubernetes Services&lt;/font&gt;" style="dashed=0;connectable=0;html=1;fillColor=#5184F3;strokeColor=none;shape=mxgraph.gcp2.hexIcon;prIcon=container_engine;part=1;labelPosition=right;verticalLabelPosition=middle;align=left;verticalAlign=top;spacingLeft=5;fontColor=#999999;fontSize=12;spacingTop=-8;" parent="995" vertex="1">
          <mxGeometry width="44" height="39" relative="1" as="geometry">
            <mxPoint x="5" y="7" as="offset" />
          </mxGeometry>
        </mxCell>
        <mxCell id="YZlFV6NySrG7bGWC-q2y-1001" value="" style="strokeWidth=1;shadow=0;dashed=0;align=center;html=1;shape=mxgraph.mockup.containers.browserWindow;rSize=0;strokeColor=#666666;strokeColor2=#008cff;strokeColor3=#c4c4c4;mainText=,;recursiveResize=0;fontFamily=Helvetica;fontSize=12;fontColor=#000000;container=0;" vertex="1" parent="1">
          <mxGeometry x="300" y="480" width="550" height="260" as="geometry" />
        </mxCell>
        <mxCell id="YZlFV6NySrG7bGWC-q2y-1002" value="Page 1" style="strokeWidth=1;shadow=0;dashed=0;align=center;html=1;shape=mxgraph.mockup.containers.anchor;fontSize=17;fontColor=#666666;align=left;fontFamily=Helvetica;" vertex="1" parent="1">
          <mxGeometry x="360" y="492" width="110" height="26" as="geometry" />
        </mxCell>
        <mxCell id="YZlFV6NySrG7bGWC-q2y-1004" value="" style="verticalLabelPosition=bottom;shadow=0;dashed=0;align=center;html=1;verticalAlign=top;strokeWidth=1;shape=mxgraph.mockup.graphics.lineChart;strokeColor=none;strokeColor2=#666666;strokeColor3=#008cff;strokeColor4=#dddddd;fontFamily=Helvetica;fontSize=12;fontColor=#000000;" vertex="1" parent="1">
          <mxGeometry x="330" y="620" width="140" height="70" as="geometry" />
        </mxCell>
        <mxCell id="YZlFV6NySrG7bGWC-q2y-1005" value="成长曲线" style="strokeWidth=1;shadow=0;dashed=0;align=center;html=1;shape=mxgraph.mockup.text.stickyNote2;fontColor=#666666;mainText=;fontSize=10;whiteSpace=wrap;fillColor=#ffffcc;strokeColor=#F62E00;fontFamily=Helvetica;" vertex="1" parent="1">
          <mxGeometry x="490" y="600" width="110" height="110" as="geometry" />
        </mxCell>
        <mxCell id="YZlFV6NySrG7bGWC-q2y-1006" value="abc" style="shape=rectangle;strokeColor=none;fillColor=none;linkText=;fontSize=17;fontColor=#0000ff;fontStyle=2;html=1;align=center;fontFamily=Helvetica;" vertex="1" parent="1">
          <mxGeometry x="325" y="700" width="150" height="30" as="geometry" />
        </mxCell>
      </root>
    </mxGraphModel>
  </diagram>
</mxfile>
